<svg t="1627885111831" class="icon" viewBox="0 0 1024 1024" version="1.1" xmlns="http://www.w3.org/2000/svg" p-id="2960" width="200" height="200"><path d="M987.648 892.1088H604.125867v-95.163733h302.1824v-48.128H604.16v-58.914134h302.1824v-48.128H604.16v-58.948266h302.1824v-48.128H604.16v-60.142934h302.1824v-46.2848H604.16v-60.177066h302.1824V321.194667H604.16V261.632h302.1824V214.1184H604.16V130.8672h383.522133v761.2416z m-599.3472-218.794667c-19.319467 10.3424-48.128 0-71.441067 1.194667-16.110933-78.916267-34.030933-157.252267-47.889066-236.270933-13.585067 76.868267-31.266133 153.019733-46.762667 229.307733-22.4256-1.194667-44.8512-2.56-67.242667-4.096-19.2512-104.6528-41.984-208.725333-60.177066-313.617067 19.8656-0.955733 39.799467-1.809067 60.142933-2.56 12.049067 75.776 25.6 151.210667 36.113067 227.157334 16.110933-77.824 32.836267-155.5456 49.527466-233.403734 22.186667-1.3312 44.168533-2.286933 66.286934-3.4816 15.36 80.349867 31.4368 160.529067 48.128 240.605867 13.141333-82.6368 27.682133-164.932267 41.745066-247.330133a2731.349333 2731.349333 0 0 0 69.666134-3.618134c-26.350933 115.234133-49.322667 231.594667-78.097067 346.112z m633.514667-531.592533a40.413867 40.413867 0 0 0-44.885334-45.499733c-124.142933-2.389333-248.4224 0-372.804266-1.058134V0h-69.5296C356.420267 32.4608 178.176 63.488 0 95.402667v832.443733c177.322667 31.744 354.645333 62.0544 531.968 94.651733h72.157867v-93.457066h348.842666c19.8656-1.194667 41.7792 0 58.709334-12.014934 13.6192-21.538133 10.1376-48.128 11.332266-72.192-1.194667-233.984 0.8192-468.7872-1.194666-703.146666z" fill="#5286E2" p-id="2961"></path></svg>