<svg t="1627886109370" class="icon" viewBox="0 0 1024 1024" version="1.1" xmlns="http://www.w3.org/2000/svg" p-id="4385" width="200" height="200"><path d="M500.605618 359.76359c0-13.449106-2.615104-35.490697-8.218898-38.105801-5.603794 10.834002-2.615104 51.928493 5.603794 73.596498 2.615104-10.834002 2.615104-19.0529 2.615104-35.490697z" fill="#FF5A5A" p-id="4386"></path><path d="M648.919372 0H139.347683c-13.449106 0-28.392557 5.603794-38.1058 16.437796s-16.437796 24.656695-16.437797 38.105801v914.912806c0 13.449106 5.603794 28.392557 16.437797 38.105801 10.834002 10.834002 24.656695 16.437796 38.1058 16.437796h744.931047c13.449106 0 28.392557-5.603794 38.105801-16.437796 10.834002-10.834002 16.437796-24.656695 16.437797-38.105801V290.276541L648.919372 0z m69.860635 613.802262c-5.603794 2.615104-13.449106 5.603794-24.656694 5.603794-29.886903 0-79.200292-19.0529-109.087195-35.490697-43.709595 8.218898-95.638088 19.0529-152.796789 35.490697-19.0529 35.490697-35.490697 62.762495-49.31339 76.585188-19.0529 22.041591-35.490697 32.875593-51.928493 32.875593h-2.615104c-16.437796 0-29.886903-10.834002-32.875593-22.041591 0-10.834002 2.615104-24.656695 16.437797-43.709595 29.886903-35.490697 90.034294-62.762495 90.034294-62.762495 8.218898-10.834002 5.603794-8.218898 13.449106-22.041591 22.041591-38.105801 43.709595-81.815396 60.147391-122.909887-2.615104-2.615104-41.094491-125.524991-5.603794-152.796789 5.603794-2.615104 10.834002-5.603794 16.437797-5.603795 8.218898 0 16.437796 2.615104 22.04159 8.218899 10.834002 10.834002 16.437796 32.875593 16.437797 62.762495-2.615104 49.313389-13.449106 79.200292-13.449106 79.200292s19.0529 57.158701 87.41919 106.47209c24.656695-2.615104 46.324699-5.603794 65.377599-5.603794 29.886903 0 49.313389 5.603794 60.147392 16.437797 5.603794 5.603794 8.218898 13.449106 8.218898 24.656694-2.615104 13.822692-5.603794 19.426487-13.822693 24.656695z" fill="#FF5A5A" p-id="4387"></path><path d="M448.677125 589.145567c24.656695-8.218898 62.762495-19.0529 101.241883-27.271798-19.0529-19.0529-41.094491-43.709595-54.543598-65.3776-2.98869 5.230208-22.041591 48.939803-46.698285 92.649398z m-120.294783 112.075885c13.449106-8.218898 24.656695-22.041591 41.094491-46.324699-22.041591 22.041591-32.875593 32.875593-35.490697 38.105801-2.615104 2.615104-2.615104 5.603794-5.603794 8.218898z m330.62386-122.909887h-5.603794c19.0529 8.218898 35.490697 13.449106 49.313389 13.449106 8.218898 0 10.834002 0 13.449106-2.615104 0 0-2.615104-2.615104-5.603794-2.615104-7.845312-5.603794-24.283108-8.218898-51.554907-8.218898z" fill="#FF5A5A" p-id="4388"></path><path d="M939.195914 290.276541h-235.359358c-13.449106 0-28.392557-5.603794-38.105801-16.437796-10.834002-10.08683-16.437796-24.656695-16.437796-38.105801V0l289.902955 290.276541z" fill="#FF9797" p-id="4389"></path></svg>