<svg t="1627549521565" class="icon" viewBox="0 0 1024 1024" version="1.1" xmlns="http://www.w3.org/2000/svg" p-id="15172" width="200" height="200"><path d="M1024 498.346667a497.891556 497.891556 0 1 1-995.783111 0A497.891556 497.891556 0 0 1 1024 498.346667z" fill="#DDE5FF" p-id="15173"></path><path d="M341.276444 496.810667a47.104 47.104 0 0 0 13.312 33.223111l0.113778 0.113778 222.890667 225.109333a46.193778 46.193778 0 0 0 33.223111 14.108444 47.160889 47.160889 0 0 0 33.678222-79.985777l-189.781333-191.715556 191.772444-190.008889a46.876444 46.876444 0 1 0-65.763555-66.901333L358.4 461.084444a45.397333 45.397333 0 0 0-17.066667 35.783112h-0.056889z" fill="#3070F5" p-id="15174"></path></svg>