<?xml version="1.0" encoding="utf-8"?>
<svg version="1.1" xmlns:xlink="http://www.w3.org/1999/xlink" width="12px" height="12px" viewBox="181 12  12 12" xmlns="http://www.w3.org/2000/svg">
  <path d="M 187 12  C 190.36 12  193 14.64  193 18  C 193 21.36  190.36 24  187 24  C 183.64 24  181 21.36  181 18  C 181 14.64  183.64 12  187 12  Z " fill-rule="nonzero" fill="#f0f0f0" stroke="none" />
  <path d="M 187 12.5  C 190.08 12.5  192.5 14.92  192.5 18  C 192.5 21.08  190.08 23.5  187 23.5  C 183.92 23.5  181.5 21.08  181.5 18  C 181.5 14.92  183.92 12.5  187 12.5  Z " stroke-width="1" stroke="#797979" fill="none" />
  <path d="M 187 21  C 185.32 21  184 19.68  184 18  C 184 16.32  185.32 15  187 15  C 188.68 15  190 16.32  190 18  C 190 19.68  188.68 21  187 21  " fill-rule="nonzero" fill="#797979" stroke="none" />
</svg>