<?xml version="1.0" encoding="utf-8"?>
<svg version="1.1" xmlns:xlink="http://www.w3.org/1999/xlink" width="12px" height="12px" viewBox="81 12  12 12" xmlns="http://www.w3.org/2000/svg">
  <path d="M 87 12  C 90.36 12  93 14.64  93 18  C 93 21.36  90.36 24  87 24  C 83.64 24  81 21.36  81 18  C 81 14.64  83.64 12  87 12  Z " fill-rule="nonzero" fill="#ffffff" stroke="none" />
  <path d="M 87 12.5  C 90.08 12.5  92.5 14.92  92.5 18  C 92.5 21.08  90.08 23.5  87 23.5  C 83.92 23.5  81.5 21.08  81.5 18  C 81.5 14.92  83.92 12.5  87 12.5  Z " stroke-width="1" stroke="#797979" fill="none" />
  <path d="M 87 21  C 85.32 21  84 19.68  84 18  C 84 16.32  85.32 15  87 15  C 88.68 15  90 16.32  90 18  C 90 19.68  88.68 21  87 21  " fill-rule="nonzero" fill="#797979" stroke="none" />
</svg>