<?xml version="1.0" encoding="utf-8"?>
<svg version="1.1" xmlns:xlink="http://www.w3.org/1999/xlink" width="12px" height="12px" viewBox="9 128  12 12" xmlns="http://www.w3.org/2000/svg">
  <path d="M 15 128  C 18.36 128  21 130.64  21 134  C 21 137.36  18.36 140  15 140  C 11.64 140  9 137.36  9 134  C 9 130.64  11.64 128  15 128  Z " fill-rule="nonzero" fill="#f0f0f0" stroke="none" />
  <path d="M 15 128.5  C 18.08 128.5  20.5 130.92  20.5 134  C 20.5 137.08  18.08 139.5  15 139.5  C 11.92 139.5  9.5 137.08  9.5 134  C 9.5 130.92  11.92 128.5  15 128.5  Z " stroke-width="1" stroke="#797979" fill="none" />
  <path d="M 15 137  C 13.32 137  12 135.68  12 134  C 12 132.32  13.32 131  15 131  C 16.68 131  18 132.32  18 134  C 18 135.68  16.68 137  15 137  " fill-rule="nonzero" fill="#797979" stroke="none" />
</svg>