<?xml version="1.0" encoding="utf-8"?>
<svg version="1.1" xmlns:xlink="http://www.w3.org/1999/xlink" width="12px" height="12px" viewBox="9 378  12 12" xmlns="http://www.w3.org/2000/svg">
  <path d="M 15 378  C 18.36 378  21 380.64  21 384  C 21 387.36  18.36 390  15 390  C 11.64 390  9 387.36  9 384  C 9 380.64  11.64 378  15 378  Z " fill-rule="nonzero" fill="#f0f0f0" stroke="none" />
  <path d="M 15 378.5  C 18.08 378.5  20.5 380.92  20.5 384  C 20.5 387.08  18.08 389.5  15 389.5  C 11.92 389.5  9.5 387.08  9.5 384  C 9.5 380.92  11.92 378.5  15 378.5  Z " stroke-width="1" stroke="#797979" fill="none" />
  <path d="M 15 387  C 13.32 387  12 385.68  12 384  C 12 382.32  13.32 381  15 381  C 16.68 381  18 382.32  18 384  C 18 385.68  16.68 387  15 387  " fill-rule="nonzero" fill="#797979" stroke="none" />
</svg>