<?xml version="1.0" encoding="utf-8"?>
<svg version="1.1" xmlns:xlink="http://www.w3.org/1999/xlink" width="12px" height="12px" viewBox="9 229  12 12" xmlns="http://www.w3.org/2000/svg">
  <path d="M 15 229  C 18.36 229  21 231.64  21 235  C 21 238.36  18.36 241  15 241  C 11.64 241  9 238.36  9 235  C 9 231.64  11.64 229  15 229  Z " fill-rule="nonzero" fill="#ffffff" stroke="none" />
  <path d="M 15 229.5  C 18.08 229.5  20.5 231.92  20.5 235  C 20.5 238.08  18.08 240.5  15 240.5  C 11.92 240.5  9.5 238.08  9.5 235  C 9.5 231.92  11.92 229.5  15 229.5  Z " stroke-width="1" stroke="#797979" fill="none" />
  <path d="M 15 238  C 13.32 238  12 236.68  12 235  C 12 233.32  13.32 232  15 232  C 16.68 232  18 233.32  18 235  C 18 236.68  16.68 238  15 238  " fill-rule="nonzero" fill="#797979" stroke="none" />
</svg>