<?xml version="1.0" encoding="utf-8"?>
<svg version="1.1" xmlns:xlink="http://www.w3.org/1999/xlink" width="12px" height="12px" viewBox="9 275  12 12" xmlns="http://www.w3.org/2000/svg">
  <path d="M 15 275  C 18.36 275  21 277.64  21 281  C 21 284.36  18.36 287  15 287  C 11.64 287  9 284.36  9 281  C 9 277.64  11.64 275  15 275  Z " fill-rule="nonzero" fill="#ffffff" stroke="none" />
  <path d="M 15 275.5  C 18.08 275.5  20.5 277.92  20.5 281  C 20.5 284.08  18.08 286.5  15 286.5  C 11.92 286.5  9.5 284.08  9.5 281  C 9.5 277.92  11.92 275.5  15 275.5  Z " stroke-width="1" stroke="#797979" fill="none" />
  <path d="M 15 284  C 13.32 284  12 282.68  12 281  C 12 279.32  13.32 278  15 278  C 16.68 278  18 279.32  18 281  C 18 282.68  16.68 284  15 284  " fill-rule="nonzero" fill="#797979" stroke="none" />
</svg>