<?xml version="1.0" encoding="utf-8"?>
<svg version="1.1" xmlns:xlink="http://www.w3.org/1999/xlink" width="12px" height="12px" viewBox="9 429  12 12" xmlns="http://www.w3.org/2000/svg">
  <path d="M 15 429  C 18.36 429  21 431.64  21 435  C 21 438.36  18.36 441  15 441  C 11.64 441  9 438.36  9 435  C 9 431.64  11.64 429  15 429  Z " fill-rule="nonzero" fill="#f0f0f0" stroke="none" />
  <path d="M 15 429.5  C 18.08 429.5  20.5 431.92  20.5 435  C 20.5 438.08  18.08 440.5  15 440.5  C 11.92 440.5  9.5 438.08  9.5 435  C 9.5 431.92  11.92 429.5  15 429.5  Z " stroke-width="1" stroke="#797979" fill="none" />
  <path d="M 15 438  C 13.32 438  12 436.68  12 435  C 12 433.32  13.32 432  15 432  C 16.68 432  18 433.32  18 435  C 18 436.68  16.68 438  15 438  " fill-rule="nonzero" fill="#797979" stroke="none" />
</svg>