<?xml version="1.0" encoding="utf-8"?>
<svg version="1.1" xmlns:xlink="http://www.w3.org/1999/xlink" width="12px" height="12px" viewBox="362 9  12 12" xmlns="http://www.w3.org/2000/svg">
  <path d="M 368 9  C 371.36 9  374 11.64  374 15  C 374 18.36  371.36 21  368 21  C 364.64 21  362 18.36  362 15  C 362 11.64  364.64 9  368 9  Z " fill-rule="nonzero" fill="#ffffff" stroke="none" />
  <path d="M 368 9.5  C 371.08 9.5  373.5 11.92  373.5 15  C 373.5 18.08  371.08 20.5  368 20.5  C 364.92 20.5  362.5 18.08  362.5 15  C 362.5 11.92  364.92 9.5  368 9.5  Z " stroke-width="1" stroke="#797979" fill="none" />
  <path d="M 368 18  C 366.32 18  365 16.68  365 15  C 365 13.32  366.32 12  368 12  C 369.68 12  371 13.32  371 15  C 371 16.68  369.68 18  368 18  " fill-rule="nonzero" fill="#797979" stroke="none" />
</svg>