<?xml version="1.0" encoding="utf-8"?>
<svg version="1.1" xmlns:xlink="http://www.w3.org/1999/xlink" width="12px" height="12px" viewBox="614 9  12 12" xmlns="http://www.w3.org/2000/svg">
  <path d="M 620 9  C 623.36 9  626 11.64  626 15  C 626 18.36  623.36 21  620 21  C 616.64 21  614 18.36  614 15  C 614 11.64  616.64 9  620 9  Z " fill-rule="nonzero" fill="#f0f0f0" stroke="none" />
  <path d="M 620 9.5  C 623.08 9.5  625.5 11.92  625.5 15  C 625.5 18.08  623.08 20.5  620 20.5  C 616.92 20.5  614.5 18.08  614.5 15  C 614.5 11.92  616.92 9.5  620 9.5  Z " stroke-width="1" stroke="#797979" fill="none" />
  <path d="M 620 18  C 618.32 18  617 16.68  617 15  C 617 13.32  618.32 12  620 12  C 621.68 12  623 13.32  623 15  C 623 16.68  621.68 18  620 18  " fill-rule="nonzero" fill="#797979" stroke="none" />
</svg>