<svg t="1627988866098" class="icon" viewBox="0 0 1024 1024" version="1.1" xmlns="http://www.w3.org/2000/svg" p-id="2818" width="200" height="200"><path d="M984.518838 1023.999716H39.480878A39.395545 39.395545 0 0 1 0 984.746393V138.524406c0-21.759994 17.635551-39.253322 39.480878-39.253322h79.018645a39.423989 39.423989 0 0 1 41.813321 36.835545 39.3671 39.3671 0 0 1-41.813321 41.642655H79.018645v767.715342h866.019315V177.635506h-39.537767a39.423989 39.423989 0 0 1-41.813322-36.835545 39.3671 39.3671 0 0 1 41.813322-41.642655h79.018645c21.845327 0 39.480878 17.578662 39.480878 39.253322v846.278876c0 21.674661-17.635551 39.253322-39.480878 39.253323V1023.999716z" fill="#4A4A4A" p-id="2819"></path><path d="M288.028364 0a40.078211 40.078211 0 0 0-40.1351 40.021322v160.312845a40.106656 40.106656 0 1 0 80.213312 0V40.021322A40.078211 40.078211 0 0 0 287.971476 0z m481.194533 0a40.078211 40.078211 0 0 0-40.106655 40.021322V200.248833a40.106656 40.106656 0 1 0 80.184867 0V40.021322A40.078211 40.078211 0 0 0 769.137564 0h0.056889zM608.710942 96.711084h-160.426622a40.078211 40.078211 0 1 0 0 80.042645h160.426622a40.078211 40.078211 0 1 0 0-80.0142zM288.028364 392.24878h-80.213311a40.078211 40.078211 0 1 0 0 80.0142h80.213311a40.078211 40.078211 0 1 0 0-80.0142z m-0.142222 160.170622H207.644387a40.078211 40.078211 0 1 0 0 80.0142h80.213311a40.078211 40.078211 0 1 0 0-80.0142z m561.493178-160.170622h-80.213311a40.078211 40.078211 0 1 0 0 80.0142h80.213311a40.078211 40.078211 0 1 0 0-80.0142z m0 160.170622h-80.213311a40.078211 40.078211 0 1 0 0 80.0142h80.213311a40.078211 40.078211 0 1 0 0-80.0142z m-280.746589-160.170622h-80.213311a40.078211 40.078211 0 1 0 0 80.0142h80.213311a40.078211 40.078211 0 1 0 0-80.0142z m0.056889 160.170622h-80.213311a40.078211 40.078211 0 1 0 0 80.0142h80.213311a40.078211 40.078211 0 1 0 0-80.0142z m-280.803478 160.255956H207.644387a40.078211 40.078211 0 1 0 0 80.0142h80.213311a40.078211 40.078211 0 1 0 0-80.0142z m280.746589 0h-80.213311a40.078211 40.078211 0 1 0 0 80.0142h80.213311a40.078211 40.078211 0 1 0 0-80.0142z" fill="#4A4A4A" p-id="2820"></path></svg>