<?xml version="1.0" encoding="utf-8"?>
<svg version="1.1" xmlns:xlink="http://www.w3.org/1999/xlink" width="12px" height="12px" viewBox="109 73  12 12" xmlns="http://www.w3.org/2000/svg">
  <path d="M 115 73  C 118.36 73  121 75.64  121 79  C 121 82.36  118.36 85  115 85  C 111.64 85  109 82.36  109 79  C 109 75.64  111.64 73  115 73  Z " fill-rule="nonzero" fill="#ffffff" stroke="none" />
  <path d="M 115 73.5  C 118.08 73.5  120.5 75.92  120.5 79  C 120.5 82.08  118.08 84.5  115 84.5  C 111.92 84.5  109.5 82.08  109.5 79  C 109.5 75.92  111.92 73.5  115 73.5  Z " stroke-width="1" stroke="#797979" fill="none" />
  <path d="M 115 82  C 113.32 82  112 80.68  112 79  C 112 77.32  113.32 76  115 76  C 116.68 76  118 77.32  118 79  C 118 80.68  116.68 82  115 82  " fill-rule="nonzero" fill="#797979" stroke="none" />
</svg>