<?xml version="1.0" encoding="utf-8"?>
<svg version="1.1" xmlns:xlink="http://www.w3.org/1999/xlink" width="12px" height="12px" viewBox="109 118  12 12" xmlns="http://www.w3.org/2000/svg">
  <path d="M 115 118  C 118.36 118  121 120.64  121 124  C 121 127.36  118.36 130  115 130  C 111.64 130  109 127.36  109 124  C 109 120.64  111.64 118  115 118  Z " fill-rule="nonzero" fill="#f0f0f0" stroke="none" />
  <path d="M 115 118.5  C 118.08 118.5  120.5 120.92  120.5 124  C 120.5 127.08  118.08 129.5  115 129.5  C 111.92 129.5  109.5 127.08  109.5 124  C 109.5 120.92  111.92 118.5  115 118.5  Z " stroke-width="1" stroke="#797979" fill="none" />
  <path d="M 115 127  C 113.32 127  112 125.68  112 124  C 112 122.32  113.32 121  115 121  C 116.68 121  118 122.32  118 124  C 118 125.68  116.68 127  115 127  " fill-rule="nonzero" fill="#797979" stroke="none" />
</svg>