<svg t="1627991844641" class="icon" viewBox="0 0 1024 1024" version="1.1" xmlns="http://www.w3.org/2000/svg" p-id="4526" width="200" height="200"><path d="M777.85199999 536.85399999l-473.68899999 473.68900001c-7.581 7.581-18.053 12.269-29.621 12.26900001-23.135 0-41.89-18.75500001-41.89000001-41.89000001 0-11.56799999 4.689-22.04 12.26900001-29.621l448.846-448.846-434.434-434.514c-6.915-7.152-11.176-16.90799999-11.176-27.658 0-21.98799999 17.825-39.81299999 39.813-39.813 10.75099999 0 20.506 4.261 27.669 11.18599999l450.428 450.42800002c5.447 5.544 9.262 12.70799999 10.658 20.70299999-0.864-5.573 0.33-6.291 1.12699999-5.097 7.558 7.576 12.232 18.032 12.232 29.581 0 11.54800002-4.67400001 22.005-12.23299999 29.58099998z" fill="#2c2c2c" p-id="4527"></path></svg>