<?xml version="1.0" encoding="utf-8"?>
<svg version="1.1" xmlns:xlink="http://www.w3.org/1999/xlink" width="12px" height="12px" viewBox="131 214  12 12" xmlns="http://www.w3.org/2000/svg">
  <path d="M 137 214  C 140.36 214  143 216.64  143 220  C 143 223.36  140.36 226  137 226  C 133.64 226  131 223.36  131 220  C 131 216.64  133.64 214  137 214  Z " fill-rule="nonzero" fill="#f0f0f0" stroke="none" />
  <path d="M 137 214.5  C 140.08 214.5  142.5 216.92  142.5 220  C 142.5 223.08  140.08 225.5  137 225.5  C 133.92 225.5  131.5 223.08  131.5 220  C 131.5 216.92  133.92 214.5  137 214.5  Z " stroke-width="1" stroke="#797979" fill="none" />
  <path d="M 137 223  C 135.32 223  134 221.68  134 220  C 134 218.32  135.32 217  137 217  C 138.68 217  140 218.32  140 220  C 140 221.68  138.68 223  137 223  " fill-rule="nonzero" fill="#797979" stroke="none" />
</svg>