<?xml version="1.0" encoding="utf-8"?>
<svg version="1.1" xmlns:xlink="http://www.w3.org/1999/xlink" width="14px" height="14px" xmlns="http://www.w3.org/2000/svg">
  <g transform="matrix(1 0 0 1 -126 -143 )">
    <path d="M 133 144  C 136.36 144  139 146.64  139 150  C 139 153.36  136.36 156  133 156  C 129.64 156  127 153.36  127 150  C 127 146.64  129.64 144  133 144  Z " fill-rule="nonzero" fill="#ffffff" stroke="none" />
    <path d="M 133 144  C 136.36 144  139 146.64  139 150  C 139 153.36  136.36 156  133 156  C 129.64 156  127 153.36  127 150  C 127 146.64  129.64 144  133 144  Z " stroke-width="2" stroke="#91d5ff" fill="none" />
  </g>
</svg>