<svg t="1627366257915" class="icon" viewBox="0 0 1024 1024" version="1.1" xmlns="http://www.w3.org/2000/svg" p-id="20911" width="200" height="200"><path d="M0 1024v-409.6a1309.184 1309.184 0 0 0 65.536-210.432c20.48-109.056 28.672-220.672 43.008-331.264A685.056 685.056 0 0 1 126.464 0h768a128 128 0 0 1 12.8 28.16c11.264 86.016 23.552 171.52 31.232 256A771.072 771.072 0 0 0 1024 614.4v409.6zM870.4 51.2H153.6L102.4 614.4s247.808-7.168 250.368 10.24c21.504 83.456 73.216 153.6 158.208 153.6a162.304 162.304 0 0 0 159.232-153.6A2061.312 2061.312 0 0 1 921.6 614.4zM256 460.8h512v51.2H256z m0-153.6h512v51.2H256z m0-153.6h512v51.2H256z" fill="#2CA388" p-id="20912"></path></svg>