<svg t="1627366304574" class="icon" viewBox="0 0 1024 1024" version="1.1" xmlns="http://www.w3.org/2000/svg" p-id="21718" width="200" height="200"><path d="M512.285938 0C230.008265 0 0.4575 229.550765 0.4575 511.828437s229.550765 511.828437 511.828438 511.828438S1024.114375 794.10611 1024.114375 511.828437 794.449235 0 512.285938 0z m0 996.321233c-267.180163 0-484.492796-217.312633-484.492796-484.492796s217.312633-484.492796 484.492796-484.492795 484.492796 217.312633 484.492795 484.492795-217.312633 484.492796-484.492795 484.492796z m-219.028259-476.944041h64.96504c2.401876 44.263152 49.981906 90.47068 151.546967 90.47068 102.251312 0 149.259466-44.835027 151.546968-90.47068H726.281693c25.963141 0 50.325031-12.695633 65.079415-33.969396 14.868759-21.273763 18.300011-48.49503 9.378756-72.856919L747.669831 267.980789c-11.437507-31.110019-41.403775-51.926282-74.572545-51.926282H346.442086c-33.16877 0-63.020663 20.930638-74.572545 52.040657l-53.184408 144.684463c-8.921255 24.36189-5.490003 51.583156 9.378756 72.856919 14.868759 21.045013 39.230649 33.740646 65.19379 33.740646z m216.512007 35.913772c-66.566291 0-92.643807-22.646264-96.532559-35.913772h193.179493c-3.774377 13.610633-29.280018 35.913772-96.646934 35.913772zM270.03954 431.422763l53.184407-144.684463c3.545627-9.721881 12.924383-16.24126 23.332515-16.24126h326.655199c10.408131 0 19.672512 6.519379 23.332514 16.24126l53.184408 144.684463c2.859377 7.66313 1.715626 16.01251-2.973752 22.760639-4.689378 6.748129-12.123757 10.636881-20.358763 10.636882H293.257679c-8.235005 0-15.669385-3.888752-20.358762-10.636882-4.689378-6.748129-5.718753-14.983134-2.859377-22.760639z m514.916564 112.430694c-15.097509 0-27.335642 12.238132-27.335642 27.335642v102.594437c0 13.725008-11.094382 24.81939-24.81939 24.81939H304.695186c-20.816263 0-37.858148-16.92751-37.858148-37.858148v-89.555679c0-15.097509-12.238132-27.335642-27.335642-27.335642s-27.335642 12.238132-27.335642 27.335642v89.555679c0 51.011281 41.403775 92.415056 92.415057 92.415057h428.105886c43.805652 0 79.376298-35.570647 79.376299-79.376299v-102.594437c0.114375-15.097509-12.123757-27.335642-27.106892-27.335642z" fill="#1A70CC" p-id="21719"></path></svg>