<svg t="1627366431220" class="icon" viewBox="0 0 1024 1024" version="1.1" xmlns="http://www.w3.org/2000/svg" p-id="22554" width="200" height="200"><path d="M512 512m-512 0a512 512 0 1 0 1024 0 512 512 0 1 0-1024 0Z" fill="#F9A825" p-id="22555"></path><path d="M768 512v-122.587429c0-15.725714-9.362286-29.988571-23.753143-36.205714l-216.612571-93.970286a39.332571 39.332571 0 0 0-31.268572 0L279.771429 353.133714A39.314286 39.314286 0 0 0 256 389.284571V728.502857c0 21.76 17.664 39.478857 39.387429 39.478857h433.225142A39.478857 39.478857 0 0 0 768 728.502857v-137.929143h-39.387429V512H768z m-157.531429 78.573714h-40.192v70.144c-13.531429 11.904-35.382857 11.904-48.804571-0.128l-98.011429-87.533714c-13.549714-12.032-13.549714-31.634286 0-43.739429l98.084572-87.533714c13.476571-12.032 35.254857-12.032 48.786286-0.128V512h40.137142v78.592z m78.756572 0h-39.387429V512h39.387429v78.592z" fill="#FFFFFF" p-id="22556"></path></svg>