<svg t="1627366773366" class="icon" viewBox="0 0 1052 1024" version="1.1" xmlns="http://www.w3.org/2000/svg" p-id="23539" width="200" height="200"><path d="M1007.322544 309.5526h-36.527207V45.19468A45.19468 45.19468 0 0 0 928.696184 0H126.95495a45.19468 45.19468 0 0 0-45.194679 45.19468V309.5526H45.233064a45.19468 45.19468 0 0 0-45.194679 47.051995v235.879081a45.19468 45.19468 0 0 0 45.194679 45.19468h962.08948a45.19468 45.19468 0 0 0 45.19468-45.19468V356.604595a45.19468 45.19468 0 0 0-45.19468-47.051995zM160.386631 78.62636H891.549872V309.5526H160.386631zM973.890863 557.19468H78.664745V390.036276h895.226118zM124.47853 674.205562h78.62636v302.742443H124.47853zM307.114563 676.062878h78.626361v225.354292H307.114563zM489.750597 674.205562h78.626361v349.794438H489.750597zM673.005736 676.062878h78.626361v288.503023h-78.626361zM855.64177 672.967352h78.626361v253.833132h-78.626361z" fill="#3972F7" p-id="23540"></path></svg>