<?xml version="1.0" encoding="utf-8"?>
<svg version="1.1" xmlns:xlink="http://www.w3.org/1999/xlink" width="67px" height="94px" xmlns="http://www.w3.org/2000/svg">
  <defs>
    <mask fill="white" id="clip33">
      <path d="M 0.190159574468083 0.0992067538829673  C 0.190159574468083 0.0992067538829673  0.190159574468083 93.4694102673936  0.190159574468083 93.4694102673936  C 0.190159574468083 93.4694102673936  66.1773275733817 26.9169635044614  66.1773275733817 26.9169635044614  C 48.8491684603212 9.73788081024455  24.5906919551823 0.0992067538829673  0.190159574468083 0.0992067538829673  Z " fill-rule="evenodd" />
    </mask>
  </defs>
  <g transform="matrix(1 0 0 1 -803 -582 )">
    <path d="M 0.190159574468083 0.0992067538829673  C 0.190159574468083 0.0992067538829673  0.190159574468083 93.4694102673936  0.190159574468083 93.4694102673936  C 0.190159574468083 93.4694102673936  66.1773275733817 26.9169635044614  66.1773275733817 26.9169635044614  C 48.8491684603212 9.73788081024455  24.5906919551823 0.0992067538829673  0.190159574468083 0.0992067538829673  Z " fill-rule="nonzero" fill="#5b8ff9" stroke="none" fill-opacity="0.847058823529412" transform="matrix(1 0 0 1 803 582 )" />
    <path d="M 0.190159574468083 0.0992067538829673  C 0.190159574468083 0.0992067538829673  0.190159574468083 93.4694102673936  0.190159574468083 93.4694102673936  C 0.190159574468083 93.4694102673936  66.1773275733817 26.9169635044614  66.1773275733817 26.9169635044614  C 48.8491684603212 9.73788081024455  24.5906919551823 0.0992067538829673  0.190159574468083 0.0992067538829673  Z " stroke-width="1.69148936170213" stroke="#ffffff" fill="none" transform="matrix(1 0 0 1 803 582 )" mask="url(#clip33)" />
  </g>
</svg>