<?xml version="1.0" encoding="utf-8"?>
<svg version="1.1" xmlns:xlink="http://www.w3.org/1999/xlink" width="94px" height="156px" xmlns="http://www.w3.org/2000/svg">
  <defs>
    <mask fill="white" id="clip34">
      <path d="M 66.1773275733817 0.916963504461435  C 66.1773275733817 0.916963504461435  0.190162831539425 66.6236669274305  0.190162831539425 66.6236669274305  C 0.190162831539425 66.6236669274305  28.1479283417287 155.668845186055  28.1479283417287 155.668845186055  C 66.5922373582214 143.482631529838  93.5603677142021 106.953171809371  93.5603677142021 66.6236702127659  C 93.5603677142021 41.94611623481  83.7022149479351 18.2910819812115  66.1773275733817 0.916963504461435  Z " fill-rule="evenodd" />
    </mask>
  </defs>
  <g transform="matrix(1 0 0 1 -803 -608 )">
    <path d="M 66.1773275733817 0.916963504461435  C 66.1773275733817 0.916963504461435  0.190162831539425 66.6236669274305  0.190162831539425 66.6236669274305  C 0.190162831539425 66.6236669274305  28.1479283417287 155.668845186055  28.1479283417287 155.668845186055  C 66.5922373582214 143.482631529838  93.5603677142021 106.953171809371  93.5603677142021 66.6236702127659  C 93.5603677142021 41.94611623481  83.7022149479351 18.2910819812115  66.1773275733817 0.916963504461435  Z " fill-rule="nonzero" fill="#5ad8a6" stroke="none" fill-opacity="0.847058823529412" transform="matrix(1 0 0 1 803 608 )" />
    <path d="M 66.1773275733817 0.916963504461435  C 66.1773275733817 0.916963504461435  0.190162831539425 66.6236669274305  0.190162831539425 66.6236669274305  C 0.190162831539425 66.6236669274305  28.1479283417287 155.668845186055  28.1479283417287 155.668845186055  C 66.5922373582214 143.482631529838  93.5603677142021 106.953171809371  93.5603677142021 66.6236702127659  C 93.5603677142021 41.94611623481  83.7022149479351 18.2910819812115  66.1773275733817 0.916963504461435  Z " stroke-width="1.69148936170213" stroke="#ffffff" fill="none" transform="matrix(1 0 0 1 803 608 )" mask="url(#clip34)" />
  </g>
</svg>