<?xml version="1.0" encoding="utf-8"?>
<svg version="1.1" xmlns:xlink="http://www.w3.org/1999/xlink" width="119px" height="94px" xmlns="http://www.w3.org/2000/svg">
  <defs>
    <mask fill="white" id="clip35">
      <path d="M 118.99367302258 89.6688451860546  C 118.99367302258 89.6688451860546  91.0359056532077 0.623674622737695  91.0359056532077 0.623674622737695  C 91.0359056532077 0.623674622737695  0.767805092400977 24.3811712858524  0.767805092400977 24.3811712858524  C 11.5393184845063 64.9247489076734  49.085848389648 93.9938783525  91.0359042553191 93.9938783525  C 100.521768609916 93.9938783525  109.951223051729 92.5351531036495  118.99367302258 89.6688451860546  Z " fill-rule="evenodd" />
    </mask>
  </defs>
  <g transform="matrix(1 0 0 1 -713 -674 )">
    <path d="M 118.99367302258 89.6688451860546  C 118.99367302258 89.6688451860546  91.0359056532077 0.623674622737695  91.0359056532077 0.623674622737695  C 91.0359056532077 0.623674622737695  0.767805092400977 24.3811712858524  0.767805092400977 24.3811712858524  C 11.5393184845063 64.9247489076734  49.085848389648 93.9938783525  91.0359042553191 93.9938783525  C 100.521768609916 93.9938783525  109.951223051729 92.5351531036495  118.99367302258 89.6688451860546  Z " fill-rule="nonzero" fill="#5d7092" stroke="none" fill-opacity="0.847058823529412" transform="matrix(1 0 0 1 713 674 )" />
    <path d="M 118.99367302258 89.6688451860546  C 118.99367302258 89.6688451860546  91.0359056532077 0.623674622737695  91.0359056532077 0.623674622737695  C 91.0359056532077 0.623674622737695  0.767805092400977 24.3811712858524  0.767805092400977 24.3811712858524  C 11.5393184845063 64.9247489076734  49.085848389648 93.9938783525  91.0359042553191 93.9938783525  C 100.521768609916 93.9938783525  109.951223051729 92.5351531036495  118.99367302258 89.6688451860546  Z " stroke-width="1.69148936170213" stroke="#ffffff" fill="none" transform="matrix(1 0 0 1 713 674 )" mask="url(#clip35)" />
  </g>
</svg>