<?xml version="1.0" encoding="utf-8"?>
<svg version="1.1" xmlns:xlink="http://www.w3.org/1999/xlink" width="95px" height="92px" xmlns="http://www.w3.org/2000/svg">
  <defs>
    <mask fill="white" id="clip36">
      <path d="M 3.76780509240098 91.2269159667034  C 3.76780509240098 91.2269159667034  94.0358997842012 67.4694160814921  94.0358997842012 67.4694160814921  C 94.0358997842012 67.4694160814921  28.7543504878781 0.224853614044093  28.7543504878781 0.224853614044093  C 4.72649048015356 23.5423565384389  -4.82936484463789 58.8674866105846  3.76780509240098 91.2269159667034  Z " fill-rule="evenodd" />
    </mask>
  </defs>
  <g transform="matrix(1 0 0 1 -710 -608 )">
    <path d="M 3.76780509240098 91.2269159667034  C 3.76780509240098 91.2269159667034  94.0358997842012 67.4694160814921  94.0358997842012 67.4694160814921  C 94.0358997842012 67.4694160814921  28.7543504878781 0.224853614044093  28.7543504878781 0.224853614044093  C 4.72649048015356 23.5423565384389  -4.82936484463789 58.8674866105846  3.76780509240098 91.2269159667034  Z " fill-rule="nonzero" fill="#f6bd16" stroke="none" fill-opacity="0.847058823529412" transform="matrix(1 0 0 1 710 608 )" />
    <path d="M 3.76780509240098 91.2269159667034  C 3.76780509240098 91.2269159667034  94.0358997842012 67.4694160814921  94.0358997842012 67.4694160814921  C 94.0358997842012 67.4694160814921  28.7543504878781 0.224853614044093  28.7543504878781 0.224853614044093  C 4.72649048015356 23.5423565384389  -4.82936484463789 58.8674866105846  3.76780509240098 91.2269159667034  Z " stroke-width="1.69148936170213" stroke="#ffffff" fill="none" transform="matrix(1 0 0 1 710 608 )" mask="url(#clip36)" />
  </g>
</svg>