<?xml version="1.0" encoding="utf-8"?>
<svg version="1.1" xmlns:xlink="http://www.w3.org/1999/xlink" width="67px" height="94px" xmlns="http://www.w3.org/2000/svg">
  <defs>
    <mask fill="white" id="clip37">
      <path d="M 0.754350487878099 26.2248536140441  C 0.754350487878099 26.2248536140441  66.0359010335285 93.469411573676  66.0359010335285 93.469411573676  C 66.0359010335285 93.469411573676  66.0359042553191 0.0992067538829673  66.0359042553191 0.0992067538829673  C 41.9775445129021 0.0992067538829815  18.0194775308759 9.47015094032589  0.754350487878099 26.2248536140441  Z " fill-rule="evenodd" />
    </mask>
  </defs>
  <g transform="matrix(1 0 0 1 -738 -582 )">
    <path d="M 0.754350487878099 26.2248536140441  C 0.754350487878099 26.2248536140441  66.0359010335285 93.469411573676  66.0359010335285 93.469411573676  C 66.0359010335285 93.469411573676  66.0359042553191 0.0992067538829673  66.0359042553191 0.0992067538829673  C 41.9775445129021 0.0992067538829815  18.0194775308759 9.47015094032589  0.754350487878099 26.2248536140441  Z " fill-rule="nonzero" fill="#e8684a" stroke="none" fill-opacity="0.847058823529412" transform="matrix(1 0 0 1 738 582 )" />
    <path d="M 0.754350487878099 26.2248536140441  C 0.754350487878099 26.2248536140441  66.0359010335285 93.469411573676  66.0359010335285 93.469411573676  C 66.0359010335285 93.469411573676  66.0359042553191 0.0992067538829673  66.0359042553191 0.0992067538829673  C 41.9775445129021 0.0992067538829815  18.0194775308759 9.47015094032589  0.754350487878099 26.2248536140441  Z " stroke-width="1.69148936170213" stroke="#ffffff" fill="none" transform="matrix(1 0 0 1 738 582 )" mask="url(#clip37)" />
  </g>
</svg>