<svg t="1627355249371" class="icon" viewBox="0 0 1294 1024" version="1.1" xmlns="http://www.w3.org/2000/svg" p-id="10000" width="200" height="200"><path d="M1275.463949 1013.975579a46.753684 46.753684 0 0 1-28.968421 9.970526 47.535158 47.535158 0 0 1-38.103579-19.186526l-206.605473-275.402105a375.053474 375.053474 0 0 1-187.176421 50.095158 389.739789 389.739789 0 1 1 382.86821-389.658948A391.518316 391.518316 0 0 1 1078.74816 671.258947l205.904842 274.432a49.232842 49.232842 0 0 1-9.189053 68.284632z m-173.648842-624.23579A287.205053 287.205053 0 1 0 814.663949 681.984a290.034526 290.034526 0 0 0 287.178106-292.244211zM330.554476 215.740632H47.822686a54.218105 54.218105 0 0 1 0-107.493053h282.758737a54.218105 54.218105 0 0 1 0 107.493053z m-280.468211 269.473684H247.691318a53.894737 53.894737 0 0 1 0 107.493052H50.086265a53.894737 53.894737 0 0 1 0.026948-107.466105z m-1.724631 350.315789H572.676581a54.137263 54.137263 0 0 1 0 107.52H48.388581a54.137263 54.137263 0 0 1 0-107.681684z" p-id="10001"></path></svg>