<svg t="1627355453160" class="icon" viewBox="0 0 1024 1024" version="1.1" xmlns="http://www.w3.org/2000/svg" p-id="12357" width="200" height="200"><path d="M946.9952 277.7088a38.4 38.4 0 0 1 38.4 38.4V947.2a38.4 38.4 0 0 1-38.4 38.4H76.8a38.4 38.4 0 0 1-38.4-38.4V316.1088a38.4 38.4 0 0 1 38.4-38.4z m-38.4 76.8H115.2V908.8h793.3952V354.5088z m-287.744 126.2592a38.3488 38.3488 0 1 1 54.272 54.272L486.7072 723.456a38.5024 38.5024 0 0 1-54.272 0L348.672 639.6416a38.4 38.4 0 0 1 54.272-54.3232l56.6272 56.6272z m248.064-322.7136a38.4 38.4 0 0 1 0 76.8H154.8288a38.4 38.4 0 0 1 0-76.8zM783.1552 38.4a38.4 38.4 0 0 1 0 76.8H240.64a38.4 38.4 0 0 1 0-76.8z" p-id="12358"></path></svg>