<svg t="1627355835355" class="icon" viewBox="0 0 1024 1024" version="1.1" xmlns="http://www.w3.org/2000/svg" p-id="13216" width="200" height="200"><path d="M413.2 155.9h419.4c44.4 0 80.3 36 80.3 80.3V393c27.1 12.9 45.9 40.6 45.9 72.6v367.2c0 44.4-36 80.3-80.3 80.3H144.3c-44.4 0-80.3-36-80.3-80.3V190.3c0-44.4 36-80.3 80.3-80.3h196.4c31.2-0.1 59.3 18.1 72.5 45.9z m23.5 68.8l50.9 152.8c1.6 4.7 6 7.8 10.9 7.8H844V236.1c0-6.3-5.2-11.4-11.5-11.4H436.7z m-303.9-34.4v642.5c0 6.3 5.1 11.5 11.5 11.5h734.2c6.3 0 11.5-5.2 11.5-11.5V465.6c0-6.3-5.1-11.5-11.5-11.5H498.6c-34.6 0-65.2-22.1-76.2-54.9l-70.9-212.7c-1.6-4.7-5.9-7.8-10.9-7.8H144.3c-6.3 0-11.5 5.2-11.5 11.5v0.1z m0 0" p-id="13217"></path></svg>