<svg t="1627357514251" class="icon" viewBox="0 0 1024 1024" version="1.1" xmlns="http://www.w3.org/2000/svg" p-id="17456" width="200" height="200"><path d="M864 1024h-768c-19.2 0-32-12.8-32-32V448H38.4c-12.8 0-25.6-6.4-25.6-19.2-6.4-12.8 0-25.6 12.8-38.4L467.2 57.6c12.8-6.4 25.6-6.4 38.4 0l441.6 332.8c12.8 6.4 12.8 25.6 12.8 38.4-12.8 12.8-25.6 19.2-38.4 19.2H896v544c0 19.2-12.8 32-32 32zM128 960h704V428.8c0-6.4 0-12.8 6.4-19.2L480 134.4 121.6 403.2c6.4 6.4 6.4 12.8 6.4 25.6V960z" p-id="17457"></path><path d="M678.4 896h-384c-19.2 0-32-12.8-32-32s12.8-32 32-32h384c19.2 0 32 12.8 32 32s-12.8 32-32 32zM678.4 768h-384c-19.2 0-32-12.8-32-32s12.8-32 32-32h384c19.2 0 32 12.8 32 32s-12.8 32-32 32zM678.4 640h-384c-19.2 0-32-12.8-32-32s12.8-32 32-32h384c19.2 0 32 12.8 32 32s-12.8 32-32 32z" p-id="17458"></path></svg>