<svg t="1627364855427" class="icon" viewBox="0 0 1024 1024" version="1.1" xmlns="http://www.w3.org/2000/svg" p-id="19237" width="200" height="200"><path d="M133.145951 887.697661 133.145951 46.663786 76.98179 46.663786l0 897.114125 898.488425 0L975.470215 887.697661 133.145951 887.697661zM273.554818 747.538481c46.524616 0 84.244706-37.636179 84.244706-84.119863 0-18.732643-6.142907-36.026518-16.520255-50.001811l85.724407-147.59043c4.868891 0.873903 9.873882 1.355881 14.996552 1.355881 5.124717 0 10.131755-0.483001 15.003715-1.355881l85.755106 147.600663c-10.373255 13.973246-16.514115 31.266098-16.514115 49.992601 0 46.483684 37.721113 84.119863 84.245729 84.119863s84.202751-37.636179 84.202751-84.119863c0-20.12741-7.086395-38.593993-18.893302-53.066613l153.440671-255.513418c1.939165 0.13303 3.889587 0.225127 5.862521 0.225127 46.523593 0 84.242659-37.679158 84.242659-84.119863s-37.719066-84.120886-84.242659-84.120886c-46.526663 0-84.244706 37.679158-84.244706 84.120886 0 23.743774 9.874905 45.182039 25.732058 60.48149L626.778628 580.927859c-5.270027-1.031493-10.711969-1.585101-16.284895-1.585101-6.548136 0-12.915148 0.77055-19.035542 2.181689l-84.303035-145.120169c11.926634-14.506389 19.0908-33.066093 19.0908-53.29788 0-46.482661-37.719066-84.119863-84.244706-84.119863-46.524616 0-84.201727 37.637202-84.201727 84.119863 0 20.225647 7.14984 38.777165 19.061125 53.279461L292.552497 581.514213c-6.109138-1.406023-12.461823-2.173502-18.996656-2.173502-46.52564 0-84.246753 37.637202-84.246753 84.077907C189.309088 709.902302 227.029178 747.538481 273.554818 747.538481z" p-id="19238"></path></svg>