<?xml version="1.0" encoding="utf-8"?>
<svg version="1.1" xmlns:xlink="http://www.w3.org/1999/xlink" width="40px" height="40px" xmlns="http://www.w3.org/2000/svg">
  <g transform="matrix(1 0 0 1 -19 -20 )">
    <path d="M 39 20  C 50.2 20  59 28.8  59 40  C 59 51.2  50.2 60  39 60  C 27.8 60  19 51.2  19 40  C 19 28.8  27.8 20  39 20  Z " fill-rule="nonzero" fill="#ffffff" stroke="none" />
    <path d="M 39 20.5  C 49.92 20.5  58.5 29.08  58.5 40  C 58.5 50.92  49.92 59.5  39 59.5  C 28.08 59.5  19.5 50.92  19.5 40  C 19.5 29.08  28.08 20.5  39 20.5  Z " stroke-width="1" stroke="#797979" fill="none" />
  </g>
</svg>