<svg t="1627270192262" class="icon" viewBox="0 0 1024 1024" version="1.1" xmlns="http://www.w3.org/2000/svg" p-id="2733" width="200" height="200"><path d="M425.5 787.3c-48.7 0-95.9-9.5-140.4-28.4-43-18.2-81.5-44.2-114.7-77.3S111.3 609.9 93.2 567c-18.8-44.5-28.4-91.8-28.4-140.4 0-48.7 9.5-95.9 28.4-140.4 18.2-43 44.2-81.5 77.3-114.7s71.7-59.1 114.7-77.3c44.5-18.8 91.8-28.4 140.4-28.4 48.7 0 95.9 9.5 140.4 28.4 43 18.2 81.5 44.2 114.7 77.3s59.1 71.7 77.3 114.7c18.8 44.5 28.4 91.8 28.4 140.4 0 48.7-9.5 95.9-28.4 140.4-18.2 43-44.2 81.5-77.3 114.7S609 740.8 566 759c-44.5 18.7-91.8 28.3-140.5 28.3z m0-641.5c-75 0-145.5 29.2-198.5 82.2s-82.2 123.5-82.2 198.5S174 572 227 625s123.5 82.2 198.5 82.2S571 678 624 625s82.2-123.5 82.2-198.5S677 281 624 228s-123.5-82.2-198.5-82.2zM919.2 958.2c-10.4 0-20.7-4-28.5-12L708.6 760.9c-15.5-15.8-15.3-41.1 0.5-56.6s41.1-15.3 56.6 0.5l182.1 185.4c15.5 15.8 15.3 41.1-0.5 56.6-7.8 7.6-18 11.4-28.1 11.4z" fill="#0B6EC9" p-id="2734"></path></svg>