<svg t="1627270407011" class="icon" viewBox="0 0 1024 1024" version="1.1" xmlns="http://www.w3.org/2000/svg" p-id="4528" width="200" height="200"><path d="M846.779739 844.204078 623.417579 844.204078c0 61.675688-50.004881 111.681592-111.681592 111.681592-61.681828 0-111.681592-50.004881-111.681592-111.681592L176.692235 844.204078 65.010643 844.204078 65.010643 732.523509l111.681592 0 0-251.28307c0-140.846842 95.358835-258.269181 224.636177-294.492174-0.480954-4.199649-1.272993-8.303106-1.272993-12.630668 0-61.681828 49.999764-111.681592 111.681592-111.681592 61.675688 0 111.681592 49.999764 111.681592 111.681592 0 4.327562-0.798179 8.432043-1.272993 12.630668 129.276319 36.224016 224.636177 153.645332 224.636177 294.492174l0 251.28307 111.681592 0 0 111.681592L846.779739 844.205101z" p-id="4529" fill="#ffffff"></path></svg>