<?xml version="1.0" encoding="utf-8"?>
<svg version="1.1" xmlns:xlink="http://www.w3.org/1999/xlink" width="10px" height="6px" xmlns="http://www.w3.org/2000/svg">
  <g transform="matrix(1 0 0 1 -1389 -38 )">
    <path d="M 9.814453125 0.18472222222222  C 9.93815104166652 0.30787037037037  10 0.453703703703702  10 0.622222222222224  C 10 0.790740740740741  9.93815104166652 0.936574074074073  9.814453125 1.05972222222222  L 5.439453125 5.41527777777777  C 5.31575520833348 5.53842592592593  5.16927083333348 5.6  5 5.6  C 4.83072916666652 5.6  4.68424479166652 5.53842592592593  4.560546875 5.41527777777777  L 0.185546875 1.05972222222222  C 0.0618489583334849 0.936574074074073  0 0.790740740740741  0 0.622222222222224  C 0 0.453703703703702  0.0618489583334849 0.30787037037037  0.185546875 0.18472222222222  C 0.309244791666515 0.0615740740740733  0.455729166666515 0  0.625 0  L 9.375 0  C 9.54427083333348 0  9.69075520833348 0.0615740740740733  9.814453125 0.18472222222222  Z " fill-rule="nonzero" fill="#ffffff" stroke="none" transform="matrix(1 0 0 1 1389 38 )" />
  </g>
</svg>