<svg t="1627270950332" class="icon" viewBox="0 0 1024 1024" version="1.1" xmlns="http://www.w3.org/2000/svg" p-id="11750" width="200" height="200"><path d="M512 1024C229.23264 1024 0 794.76736 0 512S229.23264 0 512 0s512 229.23264 512 512-229.23264 512-512 512z m185.6512-778.24H323.76832C291.84 245.76 266.24 271.91296 266.24 304.14848v410.13248c0 32.27648 25.76384 58.40896 57.52832 58.40896h373.88288c31.90784 0 57.52832-26.17344 57.52832-58.40896V304.18944c0-32.29696-25.74336-58.42944-57.5488-58.42944zM384.4096 322.1504c23.83872 0 43.15136 19.47648 43.15136 43.90912 0 24.2688-19.16928 43.90912-43.15136 43.90912-23.8592 0-43.15136-19.49696-43.15136-43.90912 0-24.2688 19.1488-43.9296 43.15136-43.9296z m131.93216 330.89536h-175.104V623.8208h175.104v29.24544z m100.02432-76.36992H341.27872V547.4304h275.10784v29.24544z m0-76.32896H341.27872V471.04h275.10784v29.2864z" p-id="11751" fill="#bfbfbf"></path></svg>