<svg t="1627350539186" class="icon" viewBox="0 0 1024 1024" version="1.1" xmlns="http://www.w3.org/2000/svg" p-id="4611" width="200" height="200"><path d="M552.13827514 877.87026977c19.73831177 0 35.75720215-16.01889038 35.75720215-35.75720214 0-8.87667847-3.58099365-16.75140381-8.94836425-23.01937867l0.35018919-0.3501892-1.84158324-1.84158324c-0.03625489-0.03625489-0.0519104-0.05520629-0.08734131-0.09228517l-295.26141357-295.2605896c-5.14077758-5.15478516-5.14077758-13.49423218 0-18.63006593l297.19033813-297.194458-0.54299925-0.54217529c5.50827026-6.30093383 9.14035034-14.30090332 9.14035034-23.31848144 0-19.72183228-16.01889038-35.73907472-35.75720216-35.73907471-12.5977478 0-23.14050292 6.912323-29.5081787 16.77200317-1.10742188 0.59655761-2.45791626 0.47460939-3.3881836 1.40487671l-338.61154175 338.61895752c-5.14489746 5.13665771-5.14489746 13.47528076 0 18.63006591l338.61154175 338.61236573c1.05386352 1.05386352 2.56091308 0.96569824 3.82406616 1.57873535 6.42288208 9.49383545 16.75717163 16.12600708 29.07312012 16.12600708z" p-id="4612" fill="#515151"></path><path d="M809.27685547 877.87026977c19.73831177 0 35.7555542-16.01889037 35.7555542-35.75720214 0-8.87667847-3.57769776-16.75140381-8.94424439-23.01937867l0.35018922-0.3501892-1.84158326-1.84158325c-0.03707886-0.03625489-0.05355835-0.0552063-0.08981323-0.09228516l-295.26223756-295.2605896c-5.14077758-5.15478516-5.14077758-13.49423218 1e-8-18.63006592l297.19445801-297.19445801-0.54382324-0.54217529c5.50827026-6.30093383 9.1387024-14.30090332 9.13870239-23.31848144 0-19.72183228-16.01724243-35.73907471-35.7555542-35.73907471-12.5977478 0-23.14297485 6.912323-29.51065064 16.77200317-1.10494995 0.59655761-2.45544433 0.47460938-3.38571165 1.40487671l-338.61318972 338.61895752c-5.14077758 5.13665771-5.14077758 13.47528076 0 18.63006591l338.61483765 338.61236574c1.05221557 1.05386353 2.56008911 0.96569823 3.82406617 1.57873534 6.4220581 9.49383545 16.75469971 16.12600708 29.07147216 16.12600708z" p-id="4613" fill="#515151"></path></svg>