<svg t="1627350653106" class="icon" viewBox="0 0 1024 1024" version="1.1" xmlns="http://www.w3.org/2000/svg" p-id="6129" width="200" height="200"><path d="M811.885714 512c-16.091429 0-29.257143 13.165714-29.257143 29.257143v291.108571c0 29.257143-24.868571 54.125714-54.125714 54.125715H282.331429c-29.257143 0-54.125714-24.868571-54.125715-54.125715V541.257143c0-16.091429-13.165714-29.257143-29.257143-29.257143s-29.257143 13.165714-29.257142 29.257143v291.108571c0 61.44 49.737143 112.64 112.64 112.64h447.634285c61.44 0 112.64-49.737143 112.64-112.64V541.257143c-1.462857-16.091429-14.628571-29.257143-30.72-29.257143z" p-id="6130" fill="#515151"></path><path d="M939.154286 463.725714L567.588571 92.16c-35.108571-35.108571-90.697143-35.108571-125.805714 0L70.217143 463.725714c-11.702857 11.702857-11.702857 29.257143 0 40.96 5.851429 5.851429 13.165714 8.777143 20.48 8.777143s14.628571-2.925714 20.48-8.777143L484.205714 133.12c11.702857-11.702857 30.72-11.702857 42.422857 0l371.565715 371.565714c11.702857 11.702857 29.257143 11.702857 40.96 0 11.702857-10.24 11.702857-29.257143 0-40.96z" p-id="6131" fill="#515151"></path></svg>