<?xml version="1.0" encoding="utf-8"?>
<svg version="1.1" xmlns:xlink="http://www.w3.org/1999/xlink" width="12px" height="12px" viewBox="314 174  12 12" xmlns="http://www.w3.org/2000/svg">
  <path d="M 320 174  C 323.36 174  326 176.64  326 180  C 326 183.36  323.36 186  320 186  C 316.64 186  314 183.36  314 180  C 314 176.64  316.64 174  320 174  Z " fill-rule="nonzero" fill="#ffffff" stroke="none" />
  <path d="M 320 174.5  C 323.08 174.5  325.5 176.92  325.5 180  C 325.5 183.08  323.08 185.5  320 185.5  C 316.92 185.5  314.5 183.08  314.5 180  C 314.5 176.92  316.92 174.5  320 174.5  Z " stroke-width="1" stroke="#797979" fill="none" />
  <path d="M 320 183  C 318.32 183  317 181.68  317 180  C 317 178.32  318.32 177  320 177  C 321.68 177  323 178.32  323 180  C 323 181.68  321.68 183  320 183  " fill-rule="nonzero" fill="#797979" stroke="none" />
</svg>