<?xml version="1.0" encoding="utf-8"?>
<svg version="1.1" xmlns:xlink="http://www.w3.org/1999/xlink" width="12px" height="12px" viewBox="74 83  12 12" xmlns="http://www.w3.org/2000/svg">
  <path d="M 80 83  C 83.36 83  86 85.64  86 89  C 86 92.36  83.36 95  80 95  C 76.64 95  74 92.36  74 89  C 74 85.64  76.64 83  80 83  Z " fill-rule="nonzero" fill="#f0f0f0" stroke="none" />
  <path d="M 80 83.5  C 83.08 83.5  85.5 85.92  85.5 89  C 85.5 92.08  83.08 94.5  80 94.5  C 76.92 94.5  74.5 92.08  74.5 89  C 74.5 85.92  76.92 83.5  80 83.5  Z " stroke-width="1" stroke="#797979" fill="none" />
  <path d="M 80 92  C 78.32 92  77 90.68  77 89  C 77 87.32  78.32 86  80 86  C 81.68 86  83 87.32  83 89  C 83 90.68  81.68 92  80 92  " fill-rule="nonzero" fill="#797979" stroke="none" />
</svg>