<?xml version="1.0" encoding="utf-8"?>
<svg version="1.1" xmlns:xlink="http://www.w3.org/1999/xlink" width="12px" height="12px" viewBox="174 83  12 12" xmlns="http://www.w3.org/2000/svg">
  <path d="M 180 83  C 183.36 83  186 85.64  186 89  C 186 92.36  183.36 95  180 95  C 176.64 95  174 92.36  174 89  C 174 85.64  176.64 83  180 83  Z " fill-rule="nonzero" fill="#f0f0f0" stroke="none" />
  <path d="M 180 83.5  C 183.08 83.5  185.5 85.92  185.5 89  C 185.5 92.08  183.08 94.5  180 94.5  C 176.92 94.5  174.5 92.08  174.5 89  C 174.5 85.92  176.92 83.5  180 83.5  Z " stroke-width="1" stroke="#797979" fill="none" />
  <path d="M 180 92  C 178.32 92  177 90.68  177 89  C 177 87.32  178.32 86  180 86  C 181.68 86  183 87.32  183 89  C 183 90.68  181.68 92  180 92  " fill-rule="nonzero" fill="#797979" stroke="none" />
</svg>