<?xml version="1.0" encoding="utf-8"?>
<svg version="1.1" xmlns:xlink="http://www.w3.org/1999/xlink" width="12px" height="12px" viewBox="12 315  12 12" xmlns="http://www.w3.org/2000/svg">
  <path d="M 18 315  C 21.36 315  24 317.64  24 321  C 24 324.36  21.36 327  18 327  C 14.64 327  12 324.36  12 321  C 12 317.64  14.64 315  18 315  Z " fill-rule="nonzero" fill="#ffffff" stroke="none" />
  <path d="M 18 315.5  C 21.08 315.5  23.5 317.92  23.5 321  C 23.5 324.08  21.08 326.5  18 326.5  C 14.92 326.5  12.5 324.08  12.5 321  C 12.5 317.92  14.92 315.5  18 315.5  Z " stroke-width="1" stroke="#797979" fill="none" />
  <path d="M 18 324  C 16.32 324  15 322.68  15 321  C 15 319.32  16.32 318  18 318  C 19.68 318  21 319.32  21 321  C 21 322.68  19.68 324  18 324  " fill-rule="nonzero" fill="#797979" stroke="none" />
</svg>