<?xml version="1.0" encoding="utf-8"?>
<svg version="1.1" xmlns:xlink="http://www.w3.org/1999/xlink" width="12px" height="12px" viewBox="12 114  12 12" xmlns="http://www.w3.org/2000/svg">
  <path d="M 18 114  C 21.36 114  24 116.64  24 120  C 24 123.36  21.36 126  18 126  C 14.64 126  12 123.36  12 120  C 12 116.64  14.64 114  18 114  Z " fill-rule="nonzero" fill="#ffffff" stroke="none" />
  <path d="M 18 114.5  C 21.08 114.5  23.5 116.92  23.5 120  C 23.5 123.08  21.08 125.5  18 125.5  C 14.92 125.5  12.5 123.08  12.5 120  C 12.5 116.92  14.92 114.5  18 114.5  Z " stroke-width="1" stroke="#797979" fill="none" />
  <path d="M 18 123  C 16.32 123  15 121.68  15 120  C 15 118.32  16.32 117  18 117  C 19.68 117  21 118.32  21 120  C 21 121.68  19.68 123  18 123  " fill-rule="nonzero" fill="#797979" stroke="none" />
</svg>