<?xml version="1.0" encoding="utf-8"?>
<svg version="1.1" xmlns:xlink="http://www.w3.org/1999/xlink" width="12px" height="12px" viewBox="12 265  12 12" xmlns="http://www.w3.org/2000/svg">
  <path d="M 18 265  C 21.36 265  24 267.64  24 271  C 24 274.36  21.36 277  18 277  C 14.64 277  12 274.36  12 271  C 12 267.64  14.64 265  18 265  Z " fill-rule="nonzero" fill="#ffffff" stroke="none" />
  <path d="M 18 265.5  C 21.08 265.5  23.5 267.92  23.5 271  C 23.5 274.08  21.08 276.5  18 276.5  C 14.92 276.5  12.5 274.08  12.5 271  C 12.5 267.92  14.92 265.5  18 265.5  Z " stroke-width="1" stroke="#797979" fill="none" />
  <path d="M 18 274  C 16.32 274  15 272.68  15 271  C 15 269.32  16.32 268  18 268  C 19.68 268  21 269.32  21 271  C 21 272.68  19.68 274  18 274  " fill-rule="nonzero" fill="#797979" stroke="none" />
</svg>