<?xml version="1.0" encoding="utf-8"?>
<svg version="1.1" xmlns:xlink="http://www.w3.org/1999/xlink" width="12px" height="12px" viewBox="12 161  12 12" xmlns="http://www.w3.org/2000/svg">
  <path d="M 18 161  C 21.36 161  24 163.64  24 167  C 24 170.36  21.36 173  18 173  C 14.64 173  12 170.36  12 167  C 12 163.64  14.64 161  18 161  Z " fill-rule="nonzero" fill="#f0f0f0" stroke="none" />
  <path d="M 18 161.5  C 21.08 161.5  23.5 163.92  23.5 167  C 23.5 170.08  21.08 172.5  18 172.5  C 14.92 172.5  12.5 170.08  12.5 167  C 12.5 163.92  14.92 161.5  18 161.5  Z " stroke-width="1" stroke="#797979" fill="none" />
  <path d="M 18 170  C 16.32 170  15 168.68  15 167  C 15 165.32  16.32 164  18 164  C 19.68 164  21 165.32  21 167  C 21 168.68  19.68 170  18 170  " fill-rule="nonzero" fill="#797979" stroke="none" />
</svg>