<?xml version="1.0" encoding="utf-8"?>
<svg version="1.1" xmlns:xlink="http://www.w3.org/1999/xlink" width="12px" height="12px" viewBox="114 159  12 12" xmlns="http://www.w3.org/2000/svg">
  <path d="M 120 159  C 123.36 159  126 161.64  126 165  C 126 168.36  123.36 171  120 171  C 116.64 171  114 168.36  114 165  C 114 161.64  116.64 159  120 159  Z " fill-rule="nonzero" fill="#f0f0f0" stroke="none" />
  <path d="M 120 159.5  C 123.08 159.5  125.5 161.92  125.5 165  C 125.5 168.08  123.08 170.5  120 170.5  C 116.92 170.5  114.5 168.08  114.5 165  C 114.5 161.92  116.92 159.5  120 159.5  Z " stroke-width="1" stroke="#797979" fill="none" />
  <path d="M 120 168  C 118.32 168  117 166.68  117 165  C 117 163.32  118.32 162  120 162  C 121.68 162  123 163.32  123 165  C 123 166.68  121.68 168  120 168  " fill-rule="nonzero" fill="#797979" stroke="none" />
</svg>