<svg t="1627957887213" class="icon" viewBox="0 0 1025 1024" version="1.1" xmlns="http://www.w3.org/2000/svg" p-id="1994" width="200" height="200"><path d="M510.976 0C228.864 0 0 228.864 0 511.488s228.864 511.488 511.488 511.488 511.488-228.864 511.488-511.488S793.6 0 510.976 0z m0 954.88C266.24 950.784 71.168 748.544 75.264 503.808c4.608-239.104 197.12-431.616 435.712-435.712 244.736 4.096 439.808 206.336 435.712 451.072-4.096 239.104-196.608 431.616-435.712 435.712z m222.208-409.088H510.976V324.096c0-9.216-7.68-16.896-16.896-16.896h-34.304c-9.216 0-16.896 7.68-16.896 16.896v272.896c0 9.216 7.68 16.896 16.896 16.896h272.896c9.216 0 16.896-7.68 16.896-16.896v-34.304c0.512-9.216-7.168-16.896-16.384-16.896z" p-id="1995"></path></svg>