<svg t="1627378229188" class="icon" viewBox="0 0 1024 1024" version="1.1" xmlns="http://www.w3.org/2000/svg" p-id="24350" width="200" height="200"><path d="M834.730667 251.306667L574.037333 512l260.693334 260.693333c10.24 10.325333 10.24 26.965333 0 37.290667l-24.832 24.746667a26.282667 26.282667 0 0 1-37.205334 0L512 574.037333 251.306667 834.730667a26.282667 26.282667 0 0 1-37.205334 0l-24.746666-24.832a26.368 26.368 0 0 1 0-37.290667L449.877333 512 189.269333 251.306667a26.282667 26.282667 0 0 1 0-37.205334l24.832-24.746666c10.24-10.325333 26.965333-10.325333 37.290667 0L512 449.706667l260.608-260.522667c10.325333-10.24 26.965333-10.24 37.290667 0l24.746666 24.832a26.282667 26.282667 0 0 1 0 37.205333z" p-id="24351"></path></svg>